<!--?xml version="1.0" standalone="no"?-->
              <svg id="sw-js-blob-svg" viewBox="0 0 100 100" xmlns="http://www.w3.org/2000/svg" version="1.1">
                    <defs> 
                        <linearGradient id="sw-gradient" x1="0" x2="1" y1="1" y2="0">
                            <stop id="stop1" stop-color="rgba(253, 54, 28, 1)" offset="0%"></stop>
                            <stop id="stop2" stop-color="rgba(0, 0, 0, 1)" offset="100%"></stop>
                        </linearGradient>
                    </defs>
                <path fill="url(#sw-gradient)" d="M22.3,-31.8C28.9,-26,34.1,-19.4,35.3,-12.3C36.5,-5.2,33.7,2.4,30.3,8.9C26.9,15.4,23,20.8,17.8,26.1C12.7,31.5,6.3,36.8,-0.5,37.5C-7.3,38.2,-14.7,34.2,-19.7,28.8C-24.7,23.4,-27.3,16.6,-29.1,9.8C-30.9,3,-31.8,-3.8,-29.5,-9.2C-27.2,-14.6,-21.8,-18.5,-16.3,-24.8C-10.9,-31,-5.4,-39.5,1.2,-41.2C7.9,-42.8,15.8,-37.7,22.3,-31.8Z" width="100%" height="100%" transform="translate(50 50)" style="transition: all 0.3s ease 0s;" stroke-width="0"></path>
              </svg>