<!--?xml version="1.0" standalone="no"?-->
              <svg id="sw-js-blob-svg" viewBox="0 0 100 100" xmlns="http://www.w3.org/2000/svg" version="1.1">
                    <defs> 
                        <linearGradient id="sw-gradient" x1="0" x2="1" y1="1" y2="0">
                            <stop id="stop1" stop-color="rgba(253, 18, 80, 1)" offset="0%"></stop>
                            <stop id="stop2" stop-color="rgba(255, 137, 6, 1)" offset="100%"></stop>
                        </linearGradient>
                    </defs>
                <path fill="url(#sw-gradient)" d="M25.6,-32.1C31,-26,31.7,-15.9,32.8,-6.3C33.9,3.3,35.5,12.4,32.7,20.4C29.8,28.4,22.6,35.3,13.9,38.8C5.2,42.2,-5,42,-14.8,39.2C-24.6,36.3,-33.9,30.6,-37.2,22.6C-40.6,14.6,-37.9,4.2,-36.1,-6.4C-34.2,-16.9,-33.2,-27.6,-27.3,-33.6C-21.4,-39.6,-10.7,-41,-0.3,-40.6C10.1,-40.3,20.2,-38.2,25.6,-32.1Z" width="100%" height="100%" transform="translate(50 50)" style="transition: all 0.3s ease 0s;" stroke-width="0"></path>
              </svg>